<svg id="Warstwa_1" data-name="Warstwa 1" xmlns="http://www.w3.org/2000/svg" viewBox="0 0 218.15 102.17"><defs><style>.cls-1{fill:#2c2c2c;}</style></defs><path class="cls-1" d="M452.42,248.37c-.39-1.66-.65-2.82-.77-3.48a10.14,10.14,0,0,1-.18-1.8,7.5,7.5,0,0,1,1-3.91,9.91,9.91,0,0,1,2.6-2.9,11.27,11.27,0,0,1,3.56-1.75,13.8,13.8,0,0,1,4-.59,10.35,10.35,0,0,1,3.81.66,7.88,7.88,0,0,1,2.78,1.76,7.49,7.49,0,0,1,1.94,3.18q.56,1.8,1.14,4.14l13.8,57.72q.66,3,1.14,5.6c.31,1.73.6,3.28.84,4.65.25,1.61.44,3.08.59,4.39h.29c.2-1.27.41-2.71.66-4.32l.84-4.65c.32-1.78.74-3.7,1.28-5.75l13.61-56.1q1.46-6.22,4.94-8.75t9.19-2.53q5.71,0,9.2,2.53t4.94,8.82L547,301.18q.66,2.93,1.21,5.6c.36,1.78.67,3.38.92,4.8.29,1.61.56,3.15.8,4.61h.29c.25-1.51.49-3.08.74-4.69.24-1.41.52-3,.84-4.76s.69-3.56,1.13-5.42l12.93-57.57c.39-1.61.76-3,1.1-4.24a6.89,6.89,0,0,1,1.76-3.08,8.07,8.07,0,0,1,3-1.87,11.18,11.18,0,0,1,3.78-.62,13.18,13.18,0,0,1,3.77.55,10.59,10.59,0,0,1,3.37,1.65,9,9,0,0,1,2.45,2.67,6.83,6.83,0,0,1,1,3.63c0,.24,0,.5,0,.76s-.08.6-.15,1-.17.87-.29,1.43-.28,1.24-.48,2L566,323a40.44,40.44,0,0,1-1.8,5.42,12,12,0,0,1-2.6,4,11.57,11.57,0,0,1-4.76,2.82,22.71,22.71,0,0,1-6.88.91,21.07,21.07,0,0,1-6.67-.91,11.68,11.68,0,0,1-4.61-2.82,10.78,10.78,0,0,1-2.49-4,55.34,55.34,0,0,1-1.69-5.42l-13.12-53.83q-.58-2.49-1.07-5c-.31-1.68-.6-3.21-.84-4.58-.24-1.61-.49-3.12-.73-4.54h-.3c-.19,1.47-.41,3-.65,4.62-.25,1.37-.53,2.88-.85,4.54s-.67,3.34-1.06,5.05L502.83,323q-.81,3.08-1.68,5.42a11.05,11.05,0,0,1-2.49,4A11.79,11.79,0,0,1,494,335.2a21.32,21.32,0,0,1-6.74.91,22.5,22.5,0,0,1-6.81-.91,11.64,11.64,0,0,1-4.76-2.82,12.33,12.33,0,0,1-2.6-4,39.12,39.12,0,0,1-1.79-5.42Z" transform="translate(-451.47 -233.94)"/><path class="cls-1" d="M593.82,251.58a10.33,10.33,0,0,1-3.56-3.44,7.64,7.64,0,0,1-1-3.79,9.69,9.69,0,0,1,.69-3.51,10.2,10.2,0,0,1,2-3.21,10.6,10.6,0,0,1,3-2.3,8.08,8.08,0,0,1,3.74-.86,7.9,7.9,0,0,1,2.75.46,17.44,17.44,0,0,1,3.22,1.72L664,275.35a12.71,12.71,0,0,1,4.48,4.42,10.76,10.76,0,0,1,1.15,5,10.4,10.4,0,0,1-1.21,4.94,13.21,13.21,0,0,1-4.42,4.48l-59.83,38.93a27.86,27.86,0,0,1-3.45,1.84,7.39,7.39,0,0,1-2.87.57,8,8,0,0,1-3.5-.8,9.12,9.12,0,0,1-2.81-2.07,9.9,9.9,0,0,1-1.84-2.93,8.5,8.5,0,0,1-.69-3.27,7.35,7.35,0,0,1,1-4,11.94,11.94,0,0,1,3.33-3.28L645,285.46Z" transform="translate(-451.47 -233.94)"/><circle class="cls-1" cx="144.53" cy="51.06" r="7"/></svg>